
        <svg width="3086.2068965517246" height="3086.2068965517246" xmlns="http://www.w3.org/2000/svg" xmlns:xlink="http://www.w3.org/1999/xlink" version="1.1">
            <rect fill="#0d0d0d" width="3086.2068965517246" height="3086.2068965517246"/>
            <g transform="scale(4.310344827586207) translate(10, 10)">
                <defs id="SvgjsDefs2933"/><g id="SvgjsG2934" transform="translate(-0.000003814697265625, -0.000030517578125) scale(13.914579999999999)" feature="container" rel="inversefill" name="filled_container" xmlns:name="filledContainer_inversefill" fill="#fff">   <title xmlns="http://www.w3.org/2000/svg">assets</title>   <path xmlns="http://www.w3.org/2000/svg" d="M100.12,273.1c0,8.88-3.62,15.67-10.6,20.11-3.87,2.47-9.47,4.89-14.4,4.89-8.63,0-14.24-1.37-18.73-8-2.7-4-6.27-11.8-6.27-17,0-6.85,1.76-14.06,6.22-18.58s11.82-6.42,18.78-6.42c9.5,0,16.77,5.3,21,13.11C98,264.74,100.12,268.79,100.12,273.1Z" transform="translate(-50.12 -248.1)"/> </g><g id="main_text" rel="mainfill" name="main_text" feature="main_text" xmlns:name="mainText_mainfill" groupName="main_text" fill="#0c020a" transform="translate(180.55600202083588, 497.34799509048463) scale(2.6)"><path d="M8.48 19.8 c-0.08 0.08 -0.16666 0.13338 -0.26 0.16004 s-0.18 0.04 -0.26 0.04 l-5.16 0 c-0.14666 0 -0.25 -0.01666 -0.31 -0.05 s-0.13 -0.09 -0.21 -0.17 l-1.14 -1.12 c-0.09334 -0.09334 -0.15 -0.17668 -0.17 -0.25002 s-0.03 -0.14334 -0.03 -0.21 l0 -2.04 c0 -0.06666 0.02666 -0.13 0.08 -0.19 s0.12 -0.09 0.2 -0.09 l1.84 0 c0.08 0 0.14666 0.03 0.2 0.09 s0.08 0.12334 0.08 0.19 l0 1.44 l3.58 0 c0.02666 0 0.06 -0.02 0.1 -0.06 l0.34 -0.32 c0.04 -0.02666 0.06 -0.07332 0.06 -0.13998 l0 -2.34 c0 -0.05334 -0.02 -0.1 -0.06 -0.14 l-0.32 -0.32 c-0.04 -0.04 -0.08666 -0.06 -0.14 -0.06 l-4.16 0 c-0.04 0 -0.10334 -0.01334 -0.19 -0.04 s-0.17666 -0.08666 -0.27 -0.18 l-1.14 -1.12 c-0.08 -0.08 -0.13334 -0.16334 -0.16 -0.25 s-0.04 -0.17 -0.04 -0.25 l0 -4.5 c0 -0.06666 0.01334 -0.14666 0.04 -0.24 s0.08666 -0.18668 0.18 -0.28002 l1.12 -1.12 c0.06666 -0.06666 0.13 -0.11666 0.19 -0.15 s0.17 -0.05 0.33 -0.05 l5.16 0 c0.08 0 0.17 0.01666 0.27 0.05 s0.18334 0.08334 0.25 0.15 l1.12 1.12 c0.10666 0.12 0.17 0.21666 0.19 0.29 s0.03 0.15 0.03 0.23 l0 2.1 c0 0.18666 -0.09334 0.28 -0.28 0.28 l-1.84 0 c-0.18666 0 -0.28 -0.09334 -0.28 -0.28 l0 -1.54 l-3.52 0 c-0.05334 0 -0.10668 0.02 -0.16002 0.06 l-0.34 0.32 c-0.04 0.02666 -0.06 0.07332 -0.06 0.13998 l0 2.32 c0 0.05334 0.02 0.1 0.06 0.14 l0.34 0.34 c0.04 0.04 0.09334 0.06 0.16 0.06 l4.06 0 c0.21334 0 0.38668 0.06666 0.52002 0.2 l1.12 1.12 c0.14666 0.16 0.22 0.33334 0.22 0.52 l0 4.48 c0 0.2 -0.07334 0.37334 -0.22 0.52 z M19.299999999999997 19.8 c-0.13334 0.13334 -0.36 0.20002 -0.68 0.20002 l-5.06 0 c-0.04 0 -0.10334 -0.01 -0.19 -0.03 s-0.17666 -0.07666 -0.27 -0.17 l-1.14 -1.14 c-0.09334 -0.09334 -0.15 -0.18334 -0.17 -0.27 s-0.03 -0.15 -0.03 -0.19 l0 -10.36 c0 -0.05334 0.01 -0.12334 0.03 -0.21 s0.07666 -0.17666 0.17 -0.27 l1.14 -1.12 c0.08 -0.08 0.15666 -0.13334 0.23 -0.16 s0.17 -0.04 0.29 -0.04 l5.16 0 c0.08 0 0.16666 0.01334 0.26 0.04 s0.18 0.08 0.26 0.16 l1.12 1.12 c0.06666 0.06666 0.12 0.14332 0.16 0.22998 s0.06 0.18332 0.06 0.28998 l0 10.26 c0 0.13334 -0.02 0.23668 -0.06 0.31002 s-0.09334 0.14334 -0.16 0.21 z M18.18 17.32 c0.04 -0.04 0.05998 -0.08668 0.05998 -0.14002 l0 -8.22 c0 -0.01334 -0.0033398 -0.03334 -0.01 -0.06 s-0.02332 -0.05332 -0.04998 -0.07998 l-0.34 -0.32 c-0.04 -0.04 -0.08 -0.06 -0.12 -0.06 l-3.02 0 c-0.05334 0 -0.1 0.02 -0.14 0.06 l-0.34 0.32 c-0.04 0.04 -0.06 0.08666 -0.06 0.14 l0 8.22 c0 0.05334 0.02 0.1 0.06 0.14 l0.28 0.28 l3.4 0 z M30.16 19.8 c-0.06666 0.06666 -0.13336 0.11668 -0.20002 0.15002 s-0.17332 0.05 -0.31998 0.05 l-5.22 0 c-0.08 0 -0.15334 -0.01 -0.22 -0.03 s-0.14666 -0.07666 -0.24 -0.17 l-1.14 -1.14 c-0.08 -0.08 -0.13334 -0.15666 -0.16 -0.23 s-0.04 -0.15 -0.04 -0.23 l0 -10.32 c0 -0.21334 0.06666 -0.38668 0.2 -0.52002 l1.14 -1.12 c0.08 -0.08 0.16334 -0.13334 0.25 -0.16 s0.17666 -0.04 0.27 -0.04 l5.16 0 c0.10666 0 0.2 0.01334 0.28 0.04 s0.16 0.08 0.24 0.16 l1.12 1.12 c0.08 0.08 0.13666 0.15 0.17 0.21 s0.05 0.16334 0.05 0.31 l0 2.14 c0 0.18666 -0.09334 0.28 -0.28 0.28 l-1.84 0 c-0.18666 0 -0.28 -0.09334 -0.28 -0.28 l0 -1.06 c0 -0.05334 -0.02 -0.1 -0.06 -0.14 l-0.34 -0.32 c-0.06666 -0.04 -0.10666 -0.06 -0.12 -0.06 l-3 0 c-0.06666 0 -0.12 0.02 -0.16 0.06 l-0.34 0.32 c-0.04 0.04 -0.06 0.08666 -0.06 0.14 l0 8.18 c0 0.08 0.02 0.14 0.06 0.18 l0.28 0.28 l3.4 0 l0.28 -0.28 c0.04 -0.04 0.06 -0.08666 0.06 -0.14 l0 -1.12 c0 -0.08 0.02666 -0.15 0.08 -0.21 s0.12 -0.09 0.2 -0.09 l1.84 0 c0.08 0 0.14666 0.03 0.2 0.09 s0.08 0.13 0.08 0.21 l0 2.12 c0 0.09334 -0.01334 0.17334 -0.04 0.24 s-0.08666 0.14666 -0.18 0.24 z M33.6 20 c-0.18666 0 -0.28 -0.09334 -0.28 -0.28 l0 -13.4 c0 -0.18666 0.09334 -0.28 0.28 -0.28 l1.84 0 c0.18666 0 0.28 0.09334 0.28 0.28 l0 13.4 c0 0.18666 -0.09334 0.28 -0.28 0.28 l-1.84 0 z M45.800000000000004 20 c-0.08 0 -0.15664 -0.03002 -0.22998 -0.09002 s-0.12334 -0.13 -0.15 -0.21 l-0.78 -2.68 l-4.46 0 l-0.78 2.68 c-0.02666 0.08 -0.07666 0.15 -0.15 0.21 s-0.15 0.09 -0.23 0.09 l-1.74 0 c-0.08 0 -0.15666 -0.03 -0.23 -0.09 s-0.09668 -0.13 -0.07002 -0.21 l3.96 -13.38 c0.02666 -0.06666 0.06 -0.13332 0.1 -0.19998 s0.1 -0.1 0.18 -0.1 l2.36 0 c0.13334 0 0.23334 0.09334 0.3 0.28 l3.94 13.4 c0.02666 0.08 0.0066602 0.15 -0.06 0.21 s-0.14 0.09 -0.22 0.09 l-1.74 0 z M42.400000000000006 9.48 l-1.5 5.1 l3.02 0 z M49.36000000000001 20 c-0.18666 0 -0.28 -0.09334 -0.28 -0.28 l0 -13.44 c0 -0.06666 0.03 -0.12332 0.09 -0.16998 s0.12334 -0.07 0.19 -0.07 l1.84 0 c0.06666 0 0.13 0.02334 0.19 0.07 s0.09 0.10332 0.09 0.16998 l0 11.32 l5.9 0 c0.18666 0 0.28 0.09334 0.28 0.28 l0 1.84 c0 0.18666 -0.09334 0.28 -0.28 0.28 l-8.02 0 z  M66.58000000000001 20 c-0.06666 0 -0.12334 -0.02336 -0.17 -0.07002 s-0.07 -0.10332 -0.07 -0.16998 l0 -11.32 l-2.8 0 c-0.18666 0 -0.28 -0.09334 -0.28 -0.28 l0 -1.84 c0 -0.18666 0.09334 -0.28 0.28 -0.28 l8.02 0 c0.06666 0 0.13 0.02666 0.19 0.08 s0.09 0.12 0.09 0.2 l0 1.84 c0 0.08 -0.03 0.14666 -0.09 0.2 s-0.12334 0.08 -0.19 0.08 l-2.82 0 l0 11.32 c0 0.16 -0.07334 0.24 -0.22 0.24 l-1.94 0 z M73.60000000000001 20 c-0.18666 0 -0.28 -0.09334 -0.28 -0.28 l0 -13.4 c0 -0.18666 0.09334 -0.28 0.28 -0.28 l7.26 0 c0.18666 0 0.28 0.09334 0.28 0.28 l0 1.84 c0 0.06666 -0.02666 0.13 -0.08 0.19 s-0.12 0.09 -0.2 0.09 l-5.14 0 l0 3.38 l4.06 0 c0.06666 0 0.13 0.02666 0.19 0.08 s0.09 0.12 0.09 0.2 l0 1.84 c0 0.08 -0.03 0.14666 -0.09 0.2 s-0.12334 0.08 -0.19 0.08 l-4.06 0 l0 3.38 l5.14 0 c0.18666 0 0.28 0.09334 0.28 0.28 l0 1.84 c0 0.18666 -0.09334 0.28 -0.28 0.28 l-7.26 0 z M89.72000000000001 20 c-0.08 0 -0.15334 -0.03 -0.22 -0.09 s-0.11332 -0.12334 -0.13998 -0.19 l-1.98 -4.86 l-2.24 0 l0 4.86 c0 0.18666 -0.09334 0.28 -0.28 0.28 l-1.84 0 c-0.18666 0 -0.28 -0.09334 -0.28 -0.28 l0 -13.4 c0 -0.18666 0.09334 -0.28 0.28 -0.28 l6.36 0 c0.05334 0 0.10668 0.0066602 0.16002 0.02 s0.11 0.03 0.17 0.05 s0.12334 0.06334 0.19 0.13 l1.12 1.12 c0.10666 0.10666 0.17332 0.22666 0.19998 0.36 c0.01334 0.05334 0.02 0.10668 0.02 0.16002 l0 5.08 c0 0.24 -0.07334 0.43334 -0.22 0.58 l-1.18 1.18 l2.02 4.98 c0.02666 0.06666 0.02332 0.13332 -0.01002 0.19998 s-0.11 0.1 -0.23 0.1 l-1.9 0 z M88.76 12.08 c0.04 -0.04 0.05998 -0.08666 0.05998 -0.14 l0 -3.02 c0 -0.04 -0.01334 -0.07334 -0.04 -0.1 l-0.34 -0.32 c-0.06666 -0.04 -0.11332 -0.06 -0.13998 -0.06 l-3.16 0 l0 4.02 l3.16 0 c0.05334 0 0.1 -0.02 0.14 -0.06 z M100.22000000000001 20 c-0.08 0 -0.15334 -0.03 -0.22 -0.09 s-0.11332 -0.12334 -0.13998 -0.19 l-1.98 -4.86 l-2.24 0 l0 4.86 c0 0.18666 -0.09334 0.28 -0.28 0.28 l-1.84 0 c-0.18666 0 -0.28 -0.09334 -0.28 -0.28 l0 -13.4 c0 -0.18666 0.09334 -0.28 0.28 -0.28 l6.36 0 c0.05334 0 0.10668 0.0066602 0.16002 0.02 s0.11 0.03 0.17 0.05 s0.12334 0.06334 0.19 0.13 l1.12 1.12 c0.10666 0.10666 0.17332 0.22666 0.19998 0.36 c0.01334 0.05334 0.02 0.10668 0.02 0.16002 l0 5.08 c0 0.24 -0.07334 0.43334 -0.22 0.58 l-1.18 1.18 l2.02 4.98 c0.02666 0.06666 0.02332 0.13332 -0.01002 0.19998 s-0.11 0.1 -0.23 0.1 l-1.9 0 z M99.26 12.08 c0.04 -0.04 0.05998 -0.08666 0.05998 -0.14 l0 -3.02 c0 -0.04 -0.01334 -0.07334 -0.04 -0.1 l-0.34 -0.32 c-0.06666 -0.04 -0.11332 -0.06 -0.13998 -0.06 l-3.16 0 l0 4.02 l3.16 0 c0.05334 0 0.1 -0.02 0.14 -0.06 z M111.66000000000001 20 c-0.08 0 -0.15664 -0.03002 -0.22998 -0.09002 s-0.12334 -0.13 -0.15 -0.21 l-0.78 -2.68 l-4.46 0 l-0.78 2.68 c-0.02666 0.08 -0.07666 0.15 -0.15 0.21 s-0.15 0.09 -0.23 0.09 l-1.74 0 c-0.08 0 -0.15666 -0.03 -0.23 -0.09 s-0.09668 -0.13 -0.07002 -0.21 l3.96 -13.38 c0.02666 -0.06666 0.06 -0.13332 0.1 -0.19998 s0.1 -0.1 0.18 -0.1 l2.36 0 c0.13334 0 0.23334 0.09334 0.3 0.28 l3.94 13.4 c0.02666 0.08 0.0066602 0.15 -0.06 0.21 s-0.14 0.09 -0.22 0.09 l-1.74 0 z M108.26 9.48 l-1.5 5.1 l3.02 0 z M115.22000000000001 20 c-0.18666 0 -0.28 -0.09334 -0.28 -0.28 l0 -13.4 c0 -0.18666 0.09334 -0.28 0.28 -0.28 l1.84 0 c0.18666 0 0.28 0.09334 0.28 0.28 l0 13.4 c0 0.18666 -0.09334 0.28 -0.28 0.28 l-1.84 0 z M125.78000000000002 20 c-0.08 0 -0.15666 -0.03 -0.23 -0.09 s-0.12334 -0.12334 -0.15 -0.19 l-3.5 -8.64 l0 8.64 c0 0.18666 -0.09334 0.28 -0.28 0.28 l-1.84 0 c-0.18666 0 -0.28 -0.09334 -0.28 -0.28 l0 -13.4 c0 -0.18666 0.09334 -0.28 0.28 -0.28 l2.44 0 c0.13334 0 0.23334 0.09334 0.3 0.28 l3.1 8.02 l0.12 0.56 l0 -8.58 c0 -0.18666 0.09334 -0.28 0.28 -0.28 l1.84 0 c0.18666 0 0.28 0.09334 0.28 0.28 l0 13.4 c0 0.18666 -0.09334 0.28 -0.28 0.28 l-2.08 0 z"/></g><g id="SvgjsG2936" rel="mainfill" name="symbol" feature="symbol" xmlns:name="symbol_mainfill" fill="#0c020a" transform="translate(157.04124336772495, 128.04119957817926) scale(3.8263888888888884)"><g xmlns="http://www.w3.org/2000/svg" transform="translate(0,-952.36218)"><path d="m 63.140886,1026.9352 c 3.875315,0 7.024606,3.2024 7.024606,7.0466 0,3.8441 -3.170905,7.0086 -7.024606,7.0086 -3.852638,0 -7.06252,-3.1429 -7.06252,-7.0086 0,-3.8658 3.187914,-7.0466 7.06252,-7.0466 z" style="text-indent:0;text-transform:none;direction:ltr;block-progression:tb;baseline-shift:baseline;color:;enable-background:accumulate;" fill="#0c020a" fill-opacity="1" fill-rule="evenodd" stroke="none" marker="none" visibility="visible" display="inline" overflow="visible"/><path d="m 47.522697,1026.9352 c 3.874961,0 7.023898,3.2024 7.023898,7.0466 0,3.8441 -3.170906,7.0086 -7.023898,7.0086 -3.853346,0 -7.063228,-3.1429 -7.063228,-7.0086 0,-3.8658 3.187914,-7.0466 7.063228,-7.0466 z" style="text-indent:0;text-transform:none;direction:ltr;block-progression:tb;baseline-shift:baseline;color:;enable-background:accumulate;" fill="{{COLOR}}" fill-opacity="1" fill-rule="evenodd" stroke="none" marker="none" visibility="visible" display="inline" overflow="visible"/><path d="m 27.781162,958.36228 c 3.875315,0 7.093701,3.19677 7.093701,7.06252 0,3.10075 -2.068937,5.70366 -4.874882,6.62492 l 0,5.31248 c 4.547835,-6.09094 11.795315,-10.0311 20.000197,-10.0311 11.06681,0 20.500511,7.21417 23.780905,17.2187 l 4.875236,0 c 1.156889,0 2.218819,1.06441 2.218819,2.21882 l 0,11.03102 c 0,1.1537 -1.06193,2.18764 -2.218819,2.18764 l -4.875236,0 c -1.692992,5.17572 -5.061614,9.61332 -9.437244,12.68752 l 1.187362,8.4373 c 4.228228,-0.039 8.390197,0 12.593976,0 8.71122,0 15.874724,7.1129 15.874724,15.8127 l 0,7.0626 c -0.03756,1.5636 -1.026142,2.3357 -2.437441,2.3747 l -82.9374787,0 c -1.6642913,-0.01 -2.6078739,-0.7845 -2.6248818,-2.2812 l 0,-7.1561 c 0,-8.6998 7.1627955,-15.8127 15.8750785,-15.8127 4.238504,-0.029 8.434134,0 12.687165,0 l 1.156536,-8.4061 c -4.382717,-3.0735 -7.71378,-7.5214 -9.406417,-12.71872 l -4.999961,0 c -1.156181,0 -2.187638,-1.03394 -2.187638,-2.18764 l 0,-11.03102 c 0,-1.15441 1.031457,-2.21882 2.187638,-2.21882 l 4.249843,0 0,-12.50008 c -2.781851,-0.93366 -4.780985,-3.5511 -4.780985,-6.62492 0,-3.84413 3.125552,-7.06252 6.999803,-7.06252 z m 0,4.4061 c -1.448149,0 -2.5937,1.18949 -2.5937,2.65642 0,1.46657 1.124291,2.56252 2.5937,2.56252 1.470827,0 2.656418,-1.11756 2.656418,-2.56252 0,-1.44532 -1.207559,-2.65642 -2.656418,-2.65642 z m 22.219016,8.96882 c -5.664685,0 -10.726654,2.28154 -14.437913,5.93752 4.967716,-1.32236 9.605905,-1.98992 14.281298,-1.96866 4.800827,0.022 9.625748,0.77386 14.843977,2.21882 -3.728622,-3.79311 -8.927362,-6.18768 -14.687362,-6.18768 z m -9.969095,10.93748 a 2.2097177,2.2045256 0 0 0 -0.03118,0 2.2097177,2.2045256 0 0 0 -0.124724,0 2.2097177,2.2045256 0 0 0 -1.062638,0.25016 c -4.804724,2.3563 -6.483543,4.13043 -8.562401,8.71866 a 2.2108381,2.2056434 0 1 0 4.03122,1.8124 c 1.991339,-4.3937 1.87937,-4.34268 6.468661,-6.59374 a 2.2097177,2.2045256 0 0 0 -0.718937,-4.18748 z m 24.625275,23.96872 c -10.258582,2.8555 -19.00807,2.9367 -29.031377,0.2813 3.696378,3.6344 8.74063,5.8752 14.375197,5.8752 5.734488,0 10.925078,-2.3641 14.65618,-6.1565 z m -4.468818,8.3749 c -3.119174,1.4021 -6.559016,2.1877 -10.187362,2.1877 -3.614173,0 -7.029213,-0.7757 -10.125,-2.1561 l -0.906378,6.0622 22.093582,0 -0.874842,-6.0938 z m 17.937637,10.5003 -2.218819,0 0,16.4374 13.687441,0 0,-5.0312 c 0,-6.2964 -5.150551,-11.4062 -11.468622,-11.4062 z m -6.625275,0 -42.968621,0 0,16.4374 42.968621,0 0,-16.4374 z m -47.374724,0 -2.25,0 c -6.318779,0 -11.468976,5.1098 -11.468976,11.4062 l 0,5.0312 13.718976,0 0,-16.4374 z" style="text-indent:0;text-transform:none;direction:ltr;block-progression:tb;baseline-shift:baseline;color:;enable-background:accumulate;" fill="{{COLOR}}" fill-opacity="1" fill-rule="evenodd" stroke="none" marker="none" visibility="visible" display="inline" overflow="visible"/></g></g>
            </g>
        </svg>
    